<svg width="64" height="64" viewBox="0 0 64 64" fill="none" xmlns="http://www.w3.org/2000/svg">
  <!-- Background circle -->
  <circle cx="32" cy="32" r="30" fill="#10A37F" opacity="0.1"/>
  
  <!-- Main circle -->
  <circle cx="32" cy="32" r="28" fill="#10A37F"/>
  
  <!-- Chat bubbles -->
  <g>
    <!-- Left bubble -->
    <path d="M14 36C14 38.2091 15.7909 40 18 40H26C28.2091 40 30 38.2091 30 36V28C30 25.7909 28.2091 24 26 24H18C15.7909 24 14 25.7909 14 28V36Z" fill="white" opacity="0.9"/>
    
    <!-- Right bubble -->
    <path d="M34 20C34 18.8954 34.8954 18 36 18H52C53.1046 18 54 18.8954 54 20V32C54 33.1046 53.1046 34 52 34H40L38 36V34H36C34.8954 34 34 33.1046 34 32V20Z" fill="#EC4899" opacity="0.8"/>
    
    <!-- Small accent dot -->
    <circle cx="40" cy="28" r="1.5" fill="white" opacity="0.7"/>
    <circle cx="46" cy="28" r="1.5" fill="white" opacity="0.7"/>
    <circle cx="52" cy="28" r="1.5" fill="white" opacity="0.7"/>
  </g>
</svg>
